# xmcd
#
# Track frame offsets:
#	150
#	16933
#	31437
#	45258
#	58276
#	70966
#	85648
#	99034
#	116330
#	132099
#	147054
#	165403
#	181506
#	193633
#	208228
#	222613
#	237159
#	250791
#	266681
#	280884
#	298772
#
# Disc length: 4200 seconds
#
# Revision: 1
# Processed by: cddbd v1.5.2PL0 Copyright (c) Steve Scherf et al.
# Submitted via: EZCDAudioConverter 4.0.5.1
#
DISCID=28106615
DTITLE=Various Artist - MULTI MUSIC HOTT COUNTRY # 288 CAN
DYEAR=2020
DGENRE=COUNTRY
TTITLE0=Luke Combs ft. Eric Church - Does To Me
TTITLE1=Old Dominion - Some People Do
TTITLE2=Brett Kissel - She Drives Me Crazy
TTITLE3=MacKenzie Porter - These Days
TTITLE4=Hot Country Nights ft. Travis Tritt - Pick Her Up
TTITLE5=Randall King - She Gone
TTITLE6=Dan Davidson - Church
TTITLE7=Zac Brown Band - Leaving Love Behind
TTITLE8=Rayne Johnson - Front Seat
TTITLE9=Tenille Arts - Somebody Like That
TTITLE10=Parker McCollum - Pretty Heart
TTITLE11=Lindsay Ell - I Don't Love You
TTITLE12=Dylan Scott - Nobody
TTITLE13=Meghan Patrick - Things i Shouldn't Say
TTITLE14=Jake Mathews - Start Of Something Good
TTITLE15=Sons of Daughters - I Picture You
TTITLE16=John King - Try Saying Goodbye
TTITLE17=Richard Schroder - We All Start Somewhere
TTITLE18=Aaron Allen - Good Tattoo
TTITLE19=The Green Rumours - Holding Horses
TTITLE20=Joe Diffie - As Long As There's A Bar
EXTD=
EXTT0=
EXTT1=
EXTT2=
EXTT3=
EXTT4=
EXTT5=
EXTT6=
EXTT7=
EXTT8=
EXTT9=
EXTT10=
EXTT11=
EXTT12=
EXTT13=
EXTT14=
EXTT15=
EXTT16=
EXTT17=
EXTT18=
EXTT19=
EXTT20=
PLAYORDER=
